<svg xmlns="http://www.w3.org/2000/svg" aria-hidden="true"
    style="position:absolute;width:0;height:0;overflow:hidden">
    <defs>
        <svg aria-hidden="true" style="position: absolute; width: 0; height: 0; overflow: hidden;"
            version="1.1" xmlns="http://www.w3.org/2000/svg"
            xmlns:xlink="http://www.w3.org/1999/xlink">
            <defs>

                <symbol id="close" viewBox="0 0 32 32">
                    <path fill="" stroke="#fff" style=""
                        stroke-linejoin="miter" stroke-linecap="butt" stroke-miterlimit="4"
                        stroke-width="2" d="M2 2l28 28M2 30l28-28"></path>
                </symbol>


                <symbol id="logo" viewBox="0 0 127 32">
                    <path fill="#fff" style="fill: var(--color1, #fff)"
                        d="M31.36 16.32c0 8.66-6.877 15.68-15.36 15.68s-15.36-7.020-15.36-15.68c0-8.66 6.877-15.68 15.36-15.68s15.36 7.020 15.36 15.68z"></path>
                    <path fill="#d41443" style="fill: var(--color2, #d41443)"
                        d="M12.16 0.64c-7.68 1.92-12.16 7.68-12.16 15.36 0 5.76 3.2 11.52 8.32 14.080 2.56 1.28 3.2 0 0.64-1.92-1.92-1.28-2.56-1.92-2.56-3.84l-0.64-3.84c-1.28-0.64-1.28-3.2 0-4.48l0.64-2.56c0.64-4.48 5.12-8.32 9.6-8.32s8.96 3.84 9.6 8.32l0.64 2.56c1.28 1.28 1.28 3.84 0 4.48l-0.64 3.84c0 1.92-0.64 2.56-2.56 3.84-2.56 2.56-1.92 3.2 1.28 1.28 4.48-2.56 7.68-8.32 7.68-13.44 0-10.24-10.88-18.56-19.84-15.36z"></path>
                    <path fill="#d41443" style="fill: var(--color2, #d41443)"
                        d="M12.8 7.68l-1.92 1.92c0 0.64 3.2 1.92 5.12 1.92l5.76-1.92-5.76-2.56-3.2 0.64zM46.080 11.52c-1.28 0-1.28 0.64-1.28 5.76v5.12h4.48v-5.76c-0.64-5.76-0.64-6.4-3.2-5.12zM53.12 11.52c-1.92 1.28-2.56 2.56-2.56 5.76s1.92 5.12 5.76 5.12c2.56 0 2.56-0.64 3.2-1.92 0-1.92 0-1.92-1.92-1.92-1.92 0.64-2.56 0-2.56-1.92s0.64-1.92 2.56-1.92c1.28 0 1.92 0 1.92-1.28v-1.92h-6.4zM60.8 11.52v10.88h4.48c3.84 0 4.48-0.64 4.48-1.92s0-1.28-1.92-1.28l-2.56-0.64 1.92-0.64c1.28 0 1.92 0 1.92-1.28s-0.64-1.28-1.92-1.28l-1.92-0.64 1.92-0.64c1.92 0 3.2-1.28 1.92-2.56 0-1.28-7.68-0.64-8.32 0zM74.24 11.52c-2.56 0.64-3.2 2.56-3.2 5.12 0 4.48 1.92 6.4 6.4 5.76 1.92 0 2.56-0.64 2.56-1.92s-0.64-1.28-2.56-1.28c-1.28 0-1.92 0-1.92-1.28-0.64-1.92 0.64-3.2 2.56-3.2 1.28 0 1.92-0.64 1.92-1.28 0.64-2.56-2.56-3.2-5.76-1.92zM81.92 11.52l-0.64 5.76v5.12h1.92c1.92 0 2.56-0.64 2.56-1.92l0.64-1.28 0.64 1.28c0 1.92 0.64 1.92 2.56 1.92 2.56 0 2.56-0.64 1.92-2.56-0.64-1.28-1.28-1.92-0.64-2.56 0.64-1.28 1.28-3.84 0-5.12-0.64-1.28-8.32-1.92-8.96-0.64zM87.040 14.72l-0.64 1.28-0.64-1.28 0.64-1.28 0.64 1.28zM93.44 11.52l-0.64 5.76v5.12h4.48c3.84 0 3.84 0 3.84-1.28 0-1.92 0-1.92-1.92-1.92l-1.92-0.64 1.92-0.64c1.28 0 1.28 0 1.28-1.28 0-0.64 0-1.28-1.28-1.28l-1.92-0.64 1.92-0.64c1.92 0 1.92 0 1.92-1.92 0-1.28 0-1.28-3.2-1.28l-4.48 0.64zM106.24 11.52c-0.64 0-3.84 8.32-3.2 10.24 0.64 1.28 3.2 0.64 3.84-0.64h1.92c1.28 1.28 4.48 1.92 4.48 0.64l-1.28-5.76c-1.28-4.48-1.28-5.12-3.2-5.12l-2.56 0.64zM108.16 17.28v0zM115.84 11.52l-0.64 5.76v5.12h1.28c1.92 0 1.92 0 2.56-1.92 0-1.28 0-1.28 0.64 0l1.28 1.28 1.92-1.28c0-1.28 0-1.28 0 0 0.64 1.92 0.64 1.92 2.56 1.92h1.92v-5.76c0-5.12 0-5.12-1.28-5.76-1.92 0-3.84 0.64-4.48 3.2l-0.64 2.56-0.64-2.56c-0.64-3.2-1.92-3.84-4.48-2.56zM8.96 12.16l-0.64 1.92c0 1.28 0.64 1.28 7.68 1.28 7.68 0 7.68 0 7.68-1.28 0-2.56-0.64-2.56-2.56-1.92-2.56 1.28-7.68 1.28-9.6 0h-2.56zM7.040 17.92c-0.64 0.64 0.64 1.28 5.76 1.28h5.76v2.56l0.64 1.92 0.64-1.92c0-2.56 0-2.56 2.56-2.56l2.56-0.64c0-1.28-17.28-1.28-17.92-0.64z"></path>
                    <path fill="#d41443" style="fill: var(--color2, #d41443)"
                        d="M8.32 23.040c0 3.84 1.28 4.48 7.68 4.48s7.68-0.64 7.68-4.48c0-1.28-0.64-1.92-1.28-1.92l-0.64 1.28c0 3.84-5.12 4.48-5.76 0.64-0.64-1.92-0.64-1.92-3.84-1.92h-3.84v1.92zM12.8 30.72c0 1.92 7.040 1.92 7.040 0 0-1.28-1.28-1.28-3.84-1.28-3.2 0-3.84 0-3.2 1.28z"></path>
                </symbol>


                <symbol id="mayor" viewBox="0 0 19 32">
                    <path fill="none" stroke="#d41443" style=""
                        stroke-linejoin="round" stroke-linecap="round"
                        stroke-width="6.4" d="M3.2 3.2l12.8 12.8-12.8 12.8"></path>
                </symbol>


                <symbol id="puntos" viewBox="0 0 133 32">
                    <path fill="#fff" style="fill: var(--color1, #fff)"
                        d="M81.6 16c0 8.837-6.925 16-15.467 16s-15.467-7.163-15.467-16c0-8.837 6.925-16 15.467-16s15.467 7.163 15.467 16z"></path>
                    <path fill="#fff" style="fill: var(--color1, #fff)"
                        d="M30.933 16c0 8.837-6.925 16-15.467 16s-15.467-7.163-15.467-16c0-8.837 6.925-16 15.467-16s15.467 7.163 15.467 16z"></path>
                    <path fill="#fff" style="fill: var(--color1, #fff)"
                        d="M132.8 16c0 8.837-6.925 16-15.467 16s-15.467-7.163-15.467-16c0-8.837 6.925-16 15.467-16s15.467 7.163 15.467 16z"></path>
                </symbol>


                <symbol id="helado1" viewBox="0 0 21 32">
                    <path fill="#ffa5ba" style="fill: var(--color3, #ffa5ba)"
                        d="M2.56 0l-0.64 1.28 0.64 1.92v0.64h-0.64l-0.64 1.28v1.28c0.192 1.241 1.252 2.179 2.532 2.179 0.779 0 1.476-0.348 1.946-0.896l0.003-0.003h1.28l0.64 0.64v0.64l1.28 2.56 1.92 0.64 1.28-0.64 1.28-2.56v-0.64l0.64-0.64h1.28l0.64 0.64c1.92 0.64 3.2 0 3.84-1.92v-1.28l-0.64-1.28h-0.64v-0.64l0.64-1.92-0.64-1.28h-16zM17.28 1.92l-0.64 0.64v2.56l0.64 0.64c0.64 0.64 0 0.64-0.64 0.64l-0.64-0.64-1.92-0.64-1.92 1.28-0.64 0.64v1.28l-0.64 1.92h-0.64l-0.64-1.92v-1.28l-0.64-0.64-1.92-0.64-1.28-0.64-1.28 1.28c-0.64 0-1.28 0-0.64-0.64l0.64-0.64v-2.56l-0.64-0.64c2.002-0.056 4.357-0.088 6.72-0.088s4.719 0.032 7.066 0.095l-0.346-0.007zM0.64 13.44l-0.64 0.64c2.683 13.919 4.014 19.963 5.391 25.99l-1.551-8.070h13.44l0.64-0.64c0.085 0.643 0.985-5.472 1.839-11.602l0.721-6.318v-0.64h-19.84v0.64zM18.56 15.36l-0.64 1.92c-1.28 2.56-3.84 3.84-6.4 4.48-2.56 0-4.48-0.64-5.76-1.92-1.605-0.993-2.766-2.573-3.191-4.433l-0.009-0.047h16zM4.48 21.76c2.56 1.92 6.4 2.56 9.6 1.28 1.28 0 2.56-0.64 3.2-1.92h0.64l-1.28 4.48-0.64 4.48h-10.88l-0.64-4.48c0.001-0.57 0.002-1.245 0.002-1.92s-0.001-1.35-0.002-2.024l0 0.104z"></path>
                </symbol>


                <symbol id="helado2" viewBox="0 0 32 32">
                    <path fill="#ffa5ba" style="fill: var(--color3, #ffa5ba)"
                        d="M29.44 21.12h-3.2l1.28-1.92c0.626-0.091 1.101-0.624 1.101-1.267 0-0.707-0.573-1.28-1.28-1.28-0.466 0-0.874 0.249-1.098 0.622l-0.003 0.006c-1.28 1.28-1.92 2.56-1.92 4.48l-1.28-0.64 1.92-9.6c0.007-0.050 0.011-0.107 0.011-0.165 0-0.476-0.259-0.891-0.644-1.111l-0.006-0.003h-0.64v-1.92c0-1.92-0.64-3.2-1.92-3.84h-3.84l1.28-2.56c0.626-0.091 1.101-0.624 1.101-1.267 0-0.707-0.573-1.28-1.28-1.28-0.466 0-0.874 0.249-1.098 0.622l-0.003 0.006c-1.28 1.28-1.92 3.2-1.92 4.48h-2.56c-1.28-1.92-2.56-2.56-4.48-1.92-1.28 0-1.92 0.64-2.56 1.92l-0.64-3.2c-0.18-0.503-0.653-0.856-1.208-0.856-0.266 0-0.512 0.081-0.717 0.219l0.005-0.003c-0.64 1.92 0 3.84 0.64 5.12-1.28 0-1.92 0.64-3.2 1.92l-0.64 2.56c-0.391 0.224-0.651 0.639-0.651 1.115 0 0.058 0.004 0.116 0.011 0.172l-0.001-0.007 3.84 19.84 1.28 0.64h15.36l0.64-0.64v-0.64l1.28 0.64h2.56c0.478 0.163 1.028 0.256 1.6 0.256s1.122-0.094 1.636-0.267l-0.036 0.011c2.56-0.64 3.84-3.84 3.84-6.4 0-1.92-1.28-3.2-2.56-3.84zM22.4 12.16c0 4.48-4.48 7.68-9.6 7.68-5.76 0-9.6-3.2-10.24-7.68h19.84zM16 7.68c0.236 0.266 0.578 0.433 0.96 0.433s0.724-0.167 0.959-0.432l0.001-0.001 0.64-0.64 2.56-0.64 0.64 1.92v1.92h-7.040l-0.64-3.84 1.28 0.64 0.64 0.64zM3.2 8.96l1.92-1.28h1.92l0.64-0.64s0-1.92 1.92-2.56l1.92 1.28c0.64 1.28 1.28 3.2 0.64 4.48h-8.96v-1.28zM5.76 30.080l-1.92-10.88h0.64c1.92 1.92 5.12 3.2 8.32 3.2s6.4-1.28 8.32-3.2v1.92c-1.92 0.64-2.56 1.92-2.56 3.84l1.28 3.84-0.64 1.28h-13.44zM27.52 29.44h-4.48c-1.28-0.64-2.56-2.56-2.56-4.48l1.92-1.92c1.28 0 1.92 1.28 1.92 1.28 0.236 0.266 0.578 0.433 0.96 0.433s0.724-0.167 0.959-0.432l0.001-0.001s0.64-1.28 2.56-0.64l1.28 1.28c0 1.92-1.28 3.84-2.56 4.48z"></path>
                </symbol>


                <symbol id="helado3" viewBox="0 0 28 32">
                    <path fill="#ffa5ba"
                        style="fill: var(--color3, #ffa5ba); stroke: var(--color3, #ffa5ba)"
                        stroke="#ffa5ba" stroke-linejoin="miter" stroke-linecap="butt"
                        stroke-miterlimit="4" stroke-width="0.3077"
                        d="M0.615 11.077c0.615 3.077 1.846 4.923 4.308 7.385 1.231 1.846 3.077 3.077 5.538 4.308h1.231v8.615h1.846v-8h1.231v8h1.846v-8.615h1.231c2.462-1.231 4.308-2.462 5.538-4.308 3.077-3.077 4.308-6.154 4.308-9.846s-1.846-6.769-4.923-8h-2.462M0.615 11.077l13.538-8M0.615 11.077c-0.127-0.648-0.2-1.392-0.2-2.154s0.073-1.506 0.212-2.227l-0.012 0.073c0.615-3.077 3.077-5.538 6.154-6.154M0.615 11.077l6.154-10.462M20.308 0.615h-2.462l-3.077 1.846-0.615 0.615M14.154 3.077l-0.615-0.615c-1.846-1.231-3.077-1.846-5.538-1.846-0.184-0.007-0.399-0.011-0.615-0.011s-0.432 0.004-0.646 0.012l0.031-0.001M14.154 3.077l-7.385-2.462M12.923 4.308l-0.615-0.615-1.846-1.231h-1.231c-1.846-0.615-3.692 0-4.923 1.231-0.465 0.361-0.87 0.765-1.219 1.215l-0.011 0.015c0.183 0.004 0.399 0.007 0.615 0.007s0.432-0.002 0.647-0.007l-0.032 0.001 3.077 0.615 3.692 2.462 3.077 1.846c0.886 0.265 1.5 0.475 2.106 0.7l-0.26-0.084c0.345 0.307 0.574 0.739 0.615 1.224l0 0.007v2.462c-0.024 0.459-0.037 0.997-0.037 1.538s0.013 1.079 0.040 1.614l-0.003-0.075h0.615v-0.615l0.615-1.846v-3.077l0.615-0.615h1.846l4.308-1.231c0.513-0.229 0.917-0.435 1.311-0.657l-0.080 0.041v-2.462c-0.615-3.077-3.077-4.923-5.538-4.923-1.846 0-3.692 1.231-4.923 2.462l-0.615 0.615h-1.231l-0.615-0.615zM9.231 8.615c-1.517-1.272-3.404-2.151-5.478-2.454l-0.060-0.007c-0.184-0.018-0.399-0.028-0.615-0.028s-0.431 0.010-0.642 0.030l0.027-0.002v3.692c0 3.077 1.231 5.538 3.692 7.385 1.846 1.846 4.308 3.692 7.385 4.308l0.615 0.615 0.615-0.615c3.077-0.615 5.538-1.846 7.385-3.692l2.462-3.692c0.478-0.878 0.898-1.899 1.204-2.968l0.027-0.109-0.615 0.615-4.923 0.615-1.231 1.231v1.231c0.010 0.458 0.015 0.998 0.015 1.538s-0.006 1.081-0.017 1.619l0.001-0.080h-0.615l-1.231 1.231-2.462-1.231v-1.231c-0.046-0.644-0.073-1.396-0.073-2.154s0.026-1.51 0.078-2.254l-0.006 0.1c0.006-0.092 0.010-0.199 0.010-0.308s-0.004-0.216-0.010-0.322l0.001 0.014h-1.231c-1.654-0.842-3.073-1.868-4.311-3.080l0.003 0.003z"></path>
                </symbol>


                <symbol id="comillas" viewBox="0 0 43 32">
                    <path fill="#e1e1e1" style="fill: var(--color4, #e1e1e1)"
                        d="M32 0l5.6 1.6c1.6 0.8 3.2 2.4 4 4.8l1.6 6.4-1.6 8-2.4 3.2-3.2 4-4 4-3.2-4.8 5.6-4.8 2.4-4.8-0.8-1.6-4.8 1.6-4-1.6-3.2-3.2c-0.76-1.124-1.213-2.509-1.213-4s0.453-2.876 1.23-4.026l-0.016 0.026 4-3.2 4-1.6zM8.8 0l5.6 1.6c1.6 0.8 3.2 2.4 4 4.8 1.6 1.6 1.6 4 1.6 6.4l-0.8 4.8-2.4 4.8-3.2 4-4.8 5.6-3.2-4.8 5.6-4.8 2.4-4.8-0.8-1.6-4.8 1.6-4-1.6-3.2-3.2-0.8-4 1.6-4 3.2-3.2 4-1.6z"></path>
                </symbol>


                <symbol id="house" viewBox="0 0 35 32">
                    <path fill="#d31342" style="fill: var(--color5, #d31342)"
                        d="M34.909 14.545l-17.455-14.545-17.455 14.545v2.909h2.909l2.909-2.909v17.455h5.818l2.909-2.909v-8.727h5.818v8.727l2.909 2.909h5.818l2.909-2.909v-14.545c0.432 0.001 0.943 0.002 1.455 0.002s1.023-0.001 1.534-0.002l-0.079 0z"></path>
                </symbol>


                <symbol id="circle" viewBox="0 0 32 32">
                    <path fill="#d9d9d9" style="fill: var(--color6, #d9d9d9)"
                        d="M32 16c0 8.837-7.163 16-16 16s-16-7.163-16-16c0-8.837 7.163-16 16-16s16 7.163 16 16z"></path>
                </symbol>


                <symbol id="puntosRed" viewBox="0 0 256 32">
                    <path fill="#c7133e" style="fill: var(--color7, #c7133e)"
                        d="M144 16c0 8.837-7.163 16-16 16s-16-7.163-16-16c0-8.837 7.163-16 16-16s16 7.163 16 16z"></path>
                    <path fill="#c7133e" style="fill: var(--color7, #c7133e)"
                        d="M32 16c0 8.837-7.163 16-16 16s-16-7.163-16-16c0-8.837 7.163-16 16-16s16 7.163 16 16z"></path>
                    <path fill="#c7133e" style="fill: var(--color7, #c7133e)"
                        d="M256 16c0 8.837-7.163 16-16 16s-16-7.163-16-16c0-8.837 7.163-16 16-16s16 7.163 16 16z"></path>
                </symbol>


                <symbol id="github" viewBox="0 0 32 32">
                    <path fill="#fff" style="fill: var(--color1, #fff)"
                        d="M16 6.588c-4.706 0-9.412 4.706-9.412 9.412s2.824 8.471 7.529 9.412v-2.824h-1.882l-0.941-1.882h-0.941v-0.941c0.941-0.941 0.941 0 1.882 0.941l0.941 0.941 0.941-0.941v-0.941c-1.882 0-2.824-1.882-3.765-2.824l0.941-3.765v-2.824l1.882 0.941h4.706l2.824-0.941v2.824s1.882 1.882 0.941 3.765c-0.941 0.941-1.882 2.824-3.765 2.824v5.647c4.706-0.941 7.529-4.706 7.529-9.412s-4.706-9.412-9.412-9.412z"></path>
                </symbol>


                <symbol id="telegram" viewBox="0 0 32 32">
                    <path fill="#fff" style="fill: var(--color1, #fff)"
                        d="M13.176 18.824l-0.941 3.765h0.941l2.824-1.882 3.765 2.824 1.882-0.941 2.824-12.235-0.941-1.882-16.941 6.588c-1.882 0-1.882 0.941-0.941 0.941l4.706 0.941 10.353-5.647s0.941 0 0 0l-7.529 7.529z"></path>
                </symbol>


                <symbol id="facebook" viewBox="0 0 32 32">
                    <path fill="#fff" style="fill: var(--color1, #fff)"
                        d="M20.706 16h-2.824v9.412h-3.765v-9.412h-1.882v-3.765h1.882v-1.882c0-1.882 0.941-3.765 3.765-3.765h2.824v2.824h-1.882l-0.941 0.941v1.882h2.824v3.765z"></path>
                </symbol>


                <symbol id="burger" viewBox="0 0 46 32">
                    <path fill="" stroke="#d41443" style="stroke: var(--color2, #d41443)"
                        stroke-linejoin="miter" stroke-linecap="butt" stroke-miterlimit="4"
                        stroke-width="2.2857" d="M0 2.286h45.714M0 16h45.714M0 29.714h45.714"></path>
                </symbol>


                <symbol id="right" viewBox="0 0 32 32">
                    <path
                        d="M19.414 27.414l10-10c0.781-0.781 0.781-2.047 0-2.828l-10-10c-0.781-0.781-2.047-0.781-2.828 0s-0.781 2.047 0 2.828l6.586 6.586h-19.172c-1.105 0-2 0.895-2 2s0.895 2 2 2h19.172l-6.586 6.586c-0.39 0.39-0.586 0.902-0.586 1.414s0.195 1.024 0.586 1.414c0.781 0.781 2.047 0.781 2.828 0z"></path>
                </symbol>

                <symbol id="elipse">
                    <circle cx="2" cy="2" r="2" fill="#C7133E" />
                </symbol>

                <symbol id="rightarrow">
                <path fill="none" stroke-linejoin="round" stroke-linecap="round"
                        stroke-miterlimit="4" stroke-width="0.7805" stroke="#000"
                        d="M0.39 0.39l11.707 15.61-11.707 15.61"></path>
                </symbol>

                <symbol id="leftarrow">
                <path fill="none" stroke-linejoin="round" stroke-linecap="round"
                        stroke-miterlimit="4" stroke-width="0.7805" stroke="#000"
                        d="M12.098 0.39l-11.707 15.61 11.707 15.61"></path>
                </symbol>


            </defs>
        </svg>

    </defs>
</svg>